<svg width="21" height="24" viewBox="0 0 21 24" fill="none" xmlns="http://www.w3.org/2000/svg">
<path d="M0.935788 10.9735C0.351993 11.5613 0.355216 12.511 0.942988 13.0948L10.5213 22.6083C11.109 23.1921 12.0588 23.1889 12.6426 22.6011C13.2264 22.0133 13.2232 21.0636 12.6354 20.4798L4.12135 12.0233L12.5778 3.50931C13.1616 2.92154 13.1584 1.9718 12.5706 1.388C11.9828 0.804207 11.0331 0.807431 10.4493 1.3952L0.935788 10.9735ZM19.9948 10.4695L1.99495 10.5305L2.00513 13.5305L20.005 13.4694L19.9948 10.4695Z" fill="#CDCDCD"/>
<path d="M0.935788 10.9735C0.351993 11.5613 0.355216 12.511 0.942988 13.0948L10.5213 22.6083C11.109 23.1921 12.0588 23.1889 12.6426 22.6011C13.2264 22.0133 13.2232 21.0636 12.6354 20.4798L4.12135 12.0233L12.5778 3.50931C13.1616 2.92154 13.1584 1.9718 12.5706 1.388C11.9828 0.804207 11.0331 0.807431 10.4493 1.3952L0.935788 10.9735ZM19.9948 10.4695L1.99495 10.5305L2.00513 13.5305L20.005 13.4694L19.9948 10.4695Z" fill="#CDCDCD"/>
</svg>
