<svg width="3182" height="3054" viewBox="0 0 3182 3054" fill="none" xmlns="http://www.w3.org/2000/svg">
<g filter="url(#filter0_f_131_13)">
<path d="M2277.59 1658.91C2785.27 1745.83 2203.37 2009.2 2036.41 2075.74C1874.1 2090.13 1753.99 2031.09 1672.96 1899.89C1639.19 1736.23 1403.73 1510.41 1914.14 1483.06C1992.9 1478.83 2045.9 1562.6 2277.59 1658.91Z" fill="#FF4E60"/>
<path d="M2157.34 1203.99C2112.33 1373.12 1947.29 1557.31 1849.77 1631.7C1679.9 1631.7 1542.2 1440.21 1542.2 1203.99C1542.2 967.775 2042.48 778.056 2212.35 778.056C2382.21 778.056 2157.34 967.775 2157.34 1203.99Z" fill="#5E65AB"/>
<path d="M915.111 1496.96C404.285 1533.9 944.439 1134.08 1100.55 1028.24C1258.6 974.904 1384.26 1004.05 1480.45 1113.7C1534.15 1266.73 1794.25 1432.27 1295.01 1582.41C1217.97 1605.58 1155.31 1535.89 915.111 1496.96Z" fill="#FF4E60"/>
<path d="M1090.37 1915.94C1113.57 1738.51 1253.09 1517.29 1339.83 1420.5C1507.12 1379.5 1666.65 1534.84 1696.17 1767.47C1725.68 2000.09 1256.69 2307.68 1089.4 2348.68C922.119 2389.68 1119.88 2148.57 1090.37 1915.94Z" fill="#5E65AB"/>
<path d="M1575.51 1910.5C1552.14 1726.23 1512.48 954.588 1553.74 897.257C1620.18 961.921 1604.07 1485.28 1700.4 1670.78C1720.32 1827.8 1831.61 1901.7 1695.66 2015.97C1695.66 2015.97 1629.04 2099.75 1575.51 1910.5Z" fill="#6E9FAD"/>
<ellipse cx="1527.86" cy="815.424" rx="86.0273" ry="115.424" fill="#6E9FAD"/>
<ellipse cx="2125.27" cy="931.678" rx="86.0273" ry="115.424" fill="#6E9FAD"/>
<ellipse cx="1176.58" cy="2167.3" rx="86.0273" ry="115.424" fill="#6E9FAD"/>
</g>
<defs>
<filter id="filter0_f_131_13" x="0.279297" y="0" width="3180.79" height="3053.27" filterUnits="userSpaceOnUse" color-interpolation-filters="sRGB">
<feFlood flood-opacity="0" result="BackgroundImageFix"/>
<feBlend mode="normal" in="SourceGraphic" in2="BackgroundImageFix" result="shape"/>
<feGaussianBlur stdDeviation="350" result="effect1_foregroundBlur_131_13"/>
</filter>
</defs>
</svg>
